<svg width="80" height="80" viewBox="0 0 80 80" fill="none" xmlns="http://www.w3.org/2000/svg">
<g clip-path="url(#clip0_2026_13)">
<path d="M79.9218 23.5202C79.7344 19.2695 79.047 16.3472 78.0623 13.815C77.0465 11.1271 75.4837 8.72058 73.4362 6.72006C71.4357 4.68842 69.0133 3.10974 66.3566 2.10979C63.8097 1.1251 60.9026 0.437708 56.6519 0.250293C52.3695 0.0470062 51.0099 0 40.1484 0C29.2869 0 27.9274 0.0470062 23.6608 0.234421C19.4101 0.421835 16.4878 1.10984 13.9562 2.09392C11.2677 3.10974 8.8612 4.67254 6.86069 6.72006C4.82904 8.72058 3.25097 11.1429 2.25041 13.7997C1.26572 16.3472 0.578333 19.2536 0.390918 23.5043C0.187631 27.7868 0.140625 29.1463 0.140625 40.0078C0.140625 50.8693 0.187631 52.2288 0.375046 56.4954C0.56246 60.7461 1.25046 63.6684 2.23515 66.2007C3.25097 68.8886 4.82904 71.2951 6.86069 73.2956C8.8612 75.3272 11.2835 76.9059 13.9403 77.9058C16.4878 78.8905 19.3943 79.5779 23.6456 79.7653C27.9116 79.9534 29.2717 79.9998 40.1332 79.9998C50.9947 79.9998 52.3542 79.9534 56.6208 79.7653C60.8715 79.5779 63.7938 78.8905 66.3254 77.9058C71.7018 75.8272 75.9526 71.5765 78.0312 66.2007C79.0153 63.6532 79.7033 60.7461 79.8907 56.4954C80.0781 52.2288 80.1251 50.8693 80.1251 40.0078C80.1251 29.1463 80.1093 27.7868 79.9218 23.5202ZM72.7177 56.1829C72.5455 60.0899 71.8893 62.1997 71.3423 63.6062C69.998 67.0914 67.232 69.8574 63.7468 71.2017C62.3403 71.7486 60.2152 72.4049 56.3235 72.5764C52.1039 72.7645 50.8384 72.8109 40.1643 72.8109C29.4902 72.8109 28.2089 72.7645 24.0045 72.5764C20.0975 72.4049 17.9877 71.7486 16.5812 71.2017C14.8469 70.5607 13.2682 69.5448 11.9868 68.2165C10.6584 66.9192 9.6426 65.3564 9.00161 63.622C8.45463 62.2155 7.79837 60.0899 7.62683 56.1987C7.4388 51.9791 7.39241 50.713 7.39241 40.039C7.39241 29.3649 7.4388 28.0835 7.62683 23.8798C7.79837 19.9728 8.45463 17.863 9.00161 16.4565C9.6426 14.7215 10.6584 13.1434 12.0027 11.8614C13.2993 10.5331 14.8621 9.51724 16.5971 8.87686C18.0036 8.32987 20.1293 7.67362 24.0204 7.50147C28.24 7.31405 29.5061 7.26704 40.1796 7.26704C50.8695 7.26704 52.135 7.31405 56.3393 7.50147C60.2464 7.67362 62.3561 8.32987 63.7627 8.87686C65.497 9.51724 67.0757 10.5331 68.3571 11.8614C69.6855 13.1587 70.7013 14.7215 71.3423 16.4565C71.8893 17.863 72.5455 19.988 72.7177 23.8798C72.9051 28.0994 72.9521 29.3649 72.9521 40.039C72.9521 50.713 72.9051 51.9633 72.7177 56.1829Z" fill="white"/>
<path d="M40.1483 19.457C28.8027 19.457 19.5974 28.6617 19.5974 40.0079C19.5974 51.3541 28.8027 60.5588 40.1483 60.5588C51.4945 60.5588 60.6992 51.3541 60.6992 40.0079C60.6992 28.6617 51.4945 19.457 40.1483 19.457ZM40.1483 53.3388C32.7879 53.3388 26.8174 47.369 26.8174 40.0079C26.8174 32.6469 32.7879 26.6771 40.1483 26.6771C47.5094 26.6771 53.4792 32.6469 53.4792 40.0079C53.4792 47.369 47.5094 53.3388 40.1483 53.3388Z" fill="white"/>
<path d="M66.3101 18.6444C66.3101 21.2938 64.1619 23.4421 61.5118 23.4421C58.8624 23.4421 56.7141 21.2938 56.7141 18.6444C56.7141 15.9943 58.8624 13.8467 61.5118 13.8467C64.1619 13.8467 66.3101 15.9943 66.3101 18.6444Z" fill="white"/>
</g>
<defs>
<clipPath id="clip0_2026_13">
<rect width="80" height="80" fill="white"/>
</clipPath>
</defs>
</svg>
