<svg width="174" height="19" viewBox="0 0 174 19" fill="none" xmlns="http://www.w3.org/2000/svg">
<g clip-path="url(#clip0_646_703)">
<path d="M0 18.296V0.691406H20.446C22.9793 0.691406 24.8016 1.07375 25.913 1.83845C27.0407 2.58652 27.6046 3.79176 27.6046 5.45411V5.57881C27.6046 7.57364 26.7302 8.87862 24.9814 9.49369C26.7302 10.0922 27.6046 11.3639 27.6046 13.3089V13.4335C27.6046 15.1292 27.0489 16.3676 25.9375 17.1489C24.8261 17.9136 22.9956 18.296 20.446 18.296H0ZM2.69672 8.1721H21.0099C22.3174 8.15549 23.2735 7.94769 23.8782 7.54872C24.4829 7.14976 24.7853 6.54299 24.7853 5.72842V5.62867C24.7853 4.7476 24.4747 4.12422 23.8537 3.75851C23.2326 3.37614 22.1376 3.18497 20.5686 3.18497H2.69672V8.1721ZM2.69672 15.8024H20.5686C22.1376 15.8024 23.2326 15.6112 23.8537 15.2289C24.4747 14.8299 24.7853 14.1733 24.7853 13.259V13.1592C24.7853 11.4636 23.5268 10.6158 21.0099 10.6158H2.69672V15.8024Z" fill="white"/>
<path d="M57.6187 7.14976C57.6187 10.2916 56.0904 12.2034 53.0341 12.8849L56.8096 18.296H53.6717L50.2394 13.1842H32.8334V18.296H30.1367V0.691406H49.7738C55.0038 0.691406 57.6187 2.80263 57.6187 7.02506V7.14976ZM54.9464 7.12481V7.00012C54.9464 5.68686 54.5379 4.72269 53.7208 4.10758C52.9034 3.49251 51.5878 3.18497 49.7738 3.18497H32.8334V10.7155H49.7738C51.6532 10.7155 52.9854 10.4413 53.7696 9.89266C54.5541 9.32744 54.9464 8.40485 54.9464 7.12481Z" fill="white"/>
<path d="M87.5496 18.2967L84.3872 14.8805H63.9164L60.7539 18.2967H57.1992L74.164 0.193359L91.0798 18.2967H87.5496ZM66.0985 12.5116H82.2051L74.164 3.80903L66.0985 12.5116Z" fill="white"/>
<path d="M100.101 18.67L83.8472 0.691406H87.3036L100.101 14.9297L112.898 0.691406H116.355L100.101 18.67Z" fill="white"/>
<path d="M117.459 18.296V0.691406H142.343V3.18497H120.156V8.1721H142.343V10.6158H120.156V15.8024H142.343V18.296H117.459Z" fill="white"/>
<path d="M143.167 18.2966L156.332 9.44442L143.167 0.691995L147.531 0.617188L158.514 7.92333L169.497 0.617188L173.861 0.691995L160.721 9.44442L173.861 18.2966H169.595L158.514 10.9904L147.433 18.2966H143.167Z" fill="white"/>
</g>
<defs>
<clipPath id="clip0_646_703">
<rect width="174" height="19" fill="white"/>
</clipPath>
</defs>
</svg>
